<svg width="358" height="242" viewBox="0 0 358 242" fill="none" xmlns="http://www.w3.org/2000/svg">
<g clip-path="url(#clip0_4_54)">
<path d="M10.0728 232.624C10.0852 222.199 13.7699 212.105 20.4908 204.085C27.2118 196.064 36.5473 190.621 46.8861 188.693V147.822H81.8452V146.263C81.8606 136.742 85.2996 127.539 91.5451 120.305C97.7906 113.071 106.433 108.28 115.922 106.792C121.415 67.8176 129.202 51.8664 161.596 38.8352C165.01 37.4712 168.351 36.1138 171.618 34.763C172.079 34.5842 172.51 34.4054 172.951 34.2068C173.543 33.879 178.965 32.5878 179.456 32.7865C181.948 33.0235 184.377 33.6961 186.632 34.7729C189.91 36.1138 193.247 37.4844 196.655 38.8253C229.048 51.8564 236.836 67.8077 242.358 106.782C251.838 108.281 260.469 113.077 266.704 120.31C272.94 127.543 276.372 136.74 276.385 146.253V147.812H311.344V188.684C321.679 190.617 331.009 196.065 337.724 204.087C344.439 212.108 348.119 222.201 348.128 232.624V237.709L358.01 237.878V0H0V237.878L10.0227 237.709L10.0728 232.624Z" fill="#00AEEF"/>
<path d="M348.128 237.709V232.624C348.116 222.202 344.434 212.11 337.717 204.09C331 196.07 321.669 190.625 311.334 188.693V147.822H276.365V146.263C276.352 136.75 272.92 127.552 266.684 120.32C260.449 113.087 251.818 108.291 242.338 106.792C236.816 67.8176 229.028 51.8664 196.635 38.8352C193.237 37.4944 189.9 36.1237 186.612 34.7828C184.357 33.706 181.928 33.0335 179.436 32.7964C178.975 32.5977 173.523 33.8889 172.931 34.2167C172.49 34.4153 172.059 34.5941 171.598 34.7729C168.324 36.1369 164.983 37.4944 161.576 38.8451C129.182 51.8763 121.395 67.8275 115.902 106.802C106.413 108.29 97.7705 113.081 91.5251 120.315C85.2796 127.549 81.8405 136.752 81.8251 146.273V147.832H46.8861V188.703C36.5473 190.631 27.2118 196.074 20.4909 204.094C13.7699 212.115 10.0852 222.209 10.0728 232.634V237.719L0.0501099 237.888V241.911L10.0728 242.01C11.4019 242.01 12.6765 241.487 13.6164 240.555C14.5562 239.624 15.0841 238.361 15.0841 237.044V232.614C15.0855 222.642 18.8709 213.035 25.6888 205.701C32.5068 198.367 41.8586 193.842 51.8874 193.024V152.768H86.8365V146.263C86.8522 137.285 90.34 128.654 96.5819 122.147C102.824 115.64 111.345 111.751 120.392 111.281C123.399 72.3666 129.583 57.0312 163.49 43.4339C168.862 41.2686 174.134 39.1531 179.145 36.9779C184.157 39.1531 189.449 41.2686 194.801 43.4339C228.657 57.0312 234.891 72.3666 237.848 111.281C246.899 111.746 255.425 115.633 261.671 122.141C267.918 128.648 271.408 137.282 271.424 146.263V152.768H306.333V193.034C316.358 193.856 325.705 198.384 332.519 205.717C339.333 213.051 343.115 222.655 343.116 232.624V237.054C343.116 238.371 343.644 239.634 344.584 240.565C345.524 241.497 346.799 242.02 348.128 242.02L358.01 241.921V237.898L348.128 237.709Z" fill="#D2EFFA"/>
</g>
<defs>
<clipPath id="clip0_4_54">
<rect width="358" height="242" fill="white"/>
</clipPath>
</defs>
</svg>
