<svg width="26" height="26" viewBox="0 0 26 26" fill="none" xmlns="http://www.w3.org/2000/svg">
<path d="M15.1667 9.75001H10.8333C10.2375 9.75001 9.75 9.26251 9.75 8.66668C9.75 8.07084 10.2375 7.58334 10.8333 7.58334H15.1667C15.7625 7.58334 16.25 8.07084 16.25 8.66668C16.25 9.26251 15.7625 9.75001 15.1667 9.75001Z" fill="white"/>
<path d="M15.4167 13.1667H11.0833C10.4875 13.1667 10 12.6792 10 12.0833C10 11.4875 10.4875 11 11.0833 11H15.4167C16.0125 11 16.5 11.4875 16.5 12.0833C16.5 12.6792 16.0125 13.1667 15.4167 13.1667Z" fill="white"/>
<path d="M21.125 3.79166L19.5 2.16666L17.875 3.79166L16.25 2.16666L14.625 3.79166L13 2.16666L11.375 3.79166L9.75 2.16666L8.125 3.79166L6.5 2.16666V17.3333H4.33333C3.7375 17.3333 3.25 17.8208 3.25 18.4167V20.5833C3.25 22.3817 4.70167 23.8333 6.5 23.8333H19.5C21.2983 23.8333 22.75 22.3817 22.75 20.5833V2.16666L21.125 3.79166ZM16.25 21.6667H6.5C5.90417 21.6667 5.41667 21.1792 5.41667 20.5833V19.5H8.66667H13H16.25V21.6667ZM20.5833 20.5833C20.5833 21.1792 20.0958 21.6667 19.5 21.6667C18.9042 21.6667 18.4167 21.1792 18.4167 20.5833V18.4167C18.4167 17.8208 17.9292 17.3333 17.3333 17.3333H15.1667H13H8.66667V5.41666H20.5833V20.5833Z" fill="white"/>
<path d="M18.4166 9.75001C19.015 9.75001 19.5 9.26499 19.5 8.66668C19.5 8.06837 19.015 7.58334 18.4166 7.58334C17.8183 7.58334 17.3333 8.06837 17.3333 8.66668C17.3333 9.26499 17.8183 9.75001 18.4166 9.75001Z" fill="white"/>
<path d="M18.4166 13C19.015 13 19.5 12.515 19.5 11.9167C19.5 11.3184 19.015 10.8333 18.4166 10.8333C17.8183 10.8333 17.3333 11.3184 17.3333 11.9167C17.3333 12.515 17.8183 13 18.4166 13Z" fill="white"/>
</svg>
