<svg width="11" height="23" viewBox="0 0 11 23" fill="none" xmlns="http://www.w3.org/2000/svg">
<path d="M9.93164 7.25781L9.48242 8.80078H0.419922L0.869141 7.25781H9.93164ZM5.86914 18L0.703125 11.9648L0.693359 10.7539H3.07617C3.76628 10.7539 4.33594 10.64 4.78516 10.4121C5.24089 10.1777 5.58268 9.86198 5.81055 9.46484C6.03841 9.06771 6.15234 8.62174 6.15234 8.12695C6.15234 7.57357 6.04492 7.08854 5.83008 6.67188C5.61523 6.2487 5.27669 5.91992 4.81445 5.68555C4.35872 5.44466 3.75977 5.32422 3.01758 5.32422H0.439453L0.898438 3.78125H3.01758C4.15039 3.78125 5.08464 3.95378 5.82031 4.29883C6.5625 4.63737 7.11589 5.13216 7.48047 5.7832C7.84505 6.43424 8.02734 7.22201 8.02734 8.14648C8.02734 8.94076 7.87435 9.65365 7.56836 10.2852C7.26888 10.9102 6.77083 11.4017 6.07422 11.7598C5.38411 12.1178 4.45312 12.2969 3.28125 12.2969L8.08594 17.8828V18H5.86914ZM9.93164 3.78125L9.48242 5.32422H2.17773L2.62695 3.78125H9.93164Z" fill="#00AEEF"/>
</svg>
